<svg width="20" height="20" viewBox="0 0 20 20" fill="none" xmlns="http://www.w3.org/2000/svg">
<g clip-path="url(#clip0_420_2160)">
<path d="M0.625 4.71875C0.40625 4.71875 0.234375 4.54688 0.234375 4.32812C0.234375 4.10938 0.40625 3.9375 0.625 3.9375L18.9844 3.96875C19.2031 3.96875 19.375 4.14062 19.375 4.35937C19.375 4.57812 19.2031 4.75 18.9844 4.75L0.625 4.71875ZM3.64062 5.51562C3.64062 5.29687 3.8125 5.125 4.03125 5.125C4.25 5.125 4.42188 5.29687 4.42188 5.51562V18.9688L15.8594 18.8437V5.65625C15.8594 5.4375 16.0312 5.26562 16.25 5.26562C16.4688 5.26562 16.6406 5.4375 16.6406 5.65625V19.6563L3.625 19.7969V5.51562H3.64062Z" fill="#DC3545" stroke="#DC3545" stroke-width="0.008"/>
<path d="M13.3281 16.9375C13.1094 16.9375 12.9375 16.7656 12.9375 16.5469V7.26562C12.9375 7.04688 13.1094 6.875 13.3281 6.875C13.5469 6.875 13.7188 7.04688 13.7188 7.26562V16.5469C13.7344 16.7656 13.5469 16.9375 13.3281 16.9375ZM7.17188 16.9375C6.95313 16.9375 6.78125 16.7656 6.78125 16.5469V7.26562C6.78125 7.04688 6.95313 6.875 7.17188 6.875C7.39063 6.875 7.5625 7.04688 7.5625 7.26562V16.5469C7.57813 16.7656 7.39063 16.9375 7.17188 16.9375ZM10.25 16.9375C10.0312 16.9375 9.85938 16.7656 9.85938 16.5469V7.26562C9.85938 7.04688 10.0312 6.875 10.25 6.875C10.4687 6.875 10.6406 7.04688 10.6406 7.26562V16.5469C10.6562 16.7656 10.4687 16.9375 10.25 16.9375ZM12.7969 4.17188V3.21875C12.7969 2.875 12.5156 2.59375 12.1719 2.59375H8.17188C7.8125 2.59375 7.54688 2.875 7.54688 3.23438V4.0625H6.76562V3.23438C6.76562 2.45313 7.40625 1.8125 8.1875 1.8125H12.1875C12.9688 1.8125 13.6094 2.45313 13.6094 3.23438V4.1875H12.7969V4.17188Z" fill="#DC3545" stroke="#DC3545" stroke-width="0.008"/>
</g>
<defs>
<clipPath id="clip0_420_2160">
<rect width="20" height="20" fill="white"/>
</clipPath>
</defs>
</svg>
