<svg width="54" height="48" viewBox="0 0 54 48" fill="none" xmlns="http://www.w3.org/2000/svg">
<path fill-rule="evenodd" clip-rule="evenodd" d="M29.0476 0.663818C29.8277 1.10957 30.4742 1.75606 30.9199 2.53612L52.4394 40.1953C53.8182 42.6081 52.9799 45.6817 50.5671 47.0604C49.8069 47.4949 48.9464 47.7234 48.0707 47.7234H5.03167C2.25275 47.7234 0 45.4706 0 42.6917C0 41.8161 0.228515 40.9556 0.662957 40.1953L22.1825 2.53612C23.5612 0.12335 26.6348 -0.714909 29.0476 0.663818ZM26.4162 32.0769C24.6192 32.0769 23.2715 33.4052 23.2715 35.1764C23.2715 37.028 24.5784 38.3564 26.4162 38.3564C28.2133 38.3564 29.561 37.028 29.561 35.2166C29.561 33.4052 28.2133 32.0769 26.4162 32.0769ZM28.9321 12.5792H23.9004V27.6742H28.9321V12.5792Z" fill="#B26000"/>
</svg>
