<svg width="51" height="51" viewBox="0 0 51 51" fill="none" xmlns="http://www.w3.org/2000/svg">
<path fill-rule="evenodd" clip-rule="evenodd" d="M25.1583 50.3167C39.0533 50.3167 50.3167 39.0533 50.3167 25.1583C50.3167 11.2634 39.0533 0 25.1583 0C11.2634 0 0 11.2634 0 25.1583C0 39.0533 11.2634 50.3167 25.1583 50.3167ZM21.3846 37.7149C21.3846 35.5336 23.0425 33.9637 25.1357 33.9637C27.2741 33.9637 28.9321 35.5336 28.9321 37.7149C28.9321 39.8961 27.2741 41.5112 25.1357 41.5112C23.0425 41.5112 21.3846 39.8961 21.3846 37.7149ZM23.0752 10.0633C22.9055 10.0635 22.7375 10.098 22.5815 10.1648C22.4254 10.2316 22.2845 10.3293 22.1672 10.452C22.0499 10.5747 21.9587 10.7199 21.899 10.8788C21.8393 11.0377 21.8124 11.207 21.8198 11.3766L22.5897 28.9874C22.6039 29.3114 22.7427 29.6173 22.9771 29.8413C23.2115 30.0654 23.5233 30.1903 23.8476 30.19H26.4716C26.7958 30.1903 27.1077 30.0654 27.3421 29.8413C27.5764 29.6173 27.7152 29.3114 27.7295 28.9874L28.4968 11.3766C28.5043 11.2068 28.4773 11.0373 28.4175 10.8782C28.3576 10.7191 28.2661 10.5739 28.1486 10.4511C28.031 10.3284 27.8898 10.2307 27.7334 10.1641C27.5771 10.0974 27.4089 10.0632 27.2389 10.0633H23.0752Z" fill="#AA000E"/>
</svg>
