<svg width="20" height="20" viewBox="0 0 20 20" fill="none" xmlns="http://www.w3.org/2000/svg">
<path d="M17.7333 5.33342L9.78325 13.2834C8.99158 14.075 6.64156 14.4417 6.11656 13.9167C5.59156 13.3917 5.94989 11.0417 6.74156 10.25L14.6999 2.29172C14.8962 2.07761 15.1338 1.90549 15.3984 1.78574C15.663 1.66599 15.9492 1.60107 16.2396 1.59496C16.5299 1.58885 16.8186 1.64163 17.088 1.75014C17.3574 1.85865 17.6021 2.02065 17.8072 2.22632C18.0123 2.43198 18.1736 2.67707 18.2813 2.94678C18.3891 3.21651 18.4412 3.50526 18.4343 3.79563C18.4273 4.08601 18.3616 4.372 18.2412 4.63629C18.1207 4.90058 17.9479 5.13774 17.7333 5.33342Z" stroke="black" stroke-width="0.8" stroke-linecap="round" stroke-linejoin="round"/>
<path d="M9.16663 3.3335H4.99996C4.1159 3.3335 3.26811 3.68468 2.64298 4.3098C2.01787 4.93493 1.66663 5.78277 1.66663 6.66683V15.0002C1.66663 15.8842 2.01787 16.7321 2.64298 17.3572C3.26811 17.9823 4.1159 18.3335 4.99996 18.3335H14.1666C16.0083 18.3335 16.6666 16.8335 16.6666 15.0002V10.8335" stroke="black" stroke-width="0.8" stroke-linecap="round" stroke-linejoin="round"/>
</svg>
