<svg width="51" height="51" viewBox="0 0 51 51" fill="none" xmlns="http://www.w3.org/2000/svg">
<path fill-rule="evenodd" clip-rule="evenodd" d="M50.3167 25.1583C50.3167 39.0528 39.0528 50.3167 25.1583 50.3167C11.2638 50.3167 0 39.0528 0 25.1583C0 11.2638 11.2638 0 25.1583 0C39.0528 0 50.3167 11.2638 50.3167 25.1583ZM25.1583 39.6244C26.2004 39.6244 27.0452 38.7796 27.0452 37.7375V22.6425C27.0452 21.6004 26.2004 20.7556 25.1583 20.7556C24.1163 20.7556 23.2715 21.6004 23.2715 22.6425V37.7375C23.2715 38.7796 24.1163 39.6244 25.1583 39.6244ZM25.1583 12.5792C26.5478 12.5792 27.6742 13.7056 27.6742 15.095C27.6742 16.4844 26.5478 17.6108 25.1583 17.6108C23.7688 17.6108 22.6425 16.4844 22.6425 15.095C22.6425 13.7056 23.7688 12.5792 25.1583 12.5792Z" fill="#00448D"/>
</svg>
