<svg width="61" height="61" viewBox="0 0 61 61" fill="none" xmlns="http://www.w3.org/2000/svg">
<path d="M30.1875 0C38.1937 0 45.872 3.18046 51.5333 8.84171C57.1945 14.503 60.375 22.1813 60.375 30.1875C60.375 38.1937 57.1945 45.872 51.5333 51.5333C45.872 57.1945 38.1937 60.375 30.1875 60.375C22.1813 60.375 14.503 57.1945 8.84171 51.5333C3.18046 45.872 0 38.1937 0 30.1875C0 22.1813 3.18046 14.503 8.84171 8.84171C14.503 3.18046 22.1813 0 30.1875 0ZM26.427 36.1431L19.7211 29.4328C19.4807 29.1924 19.1953 29.0017 18.8811 28.8716C18.567 28.7415 18.2304 28.6745 17.8904 28.6745C17.5504 28.6745 17.2138 28.7415 16.8997 28.8716C16.5856 29.0017 16.3002 29.1924 16.0597 29.4328C15.5742 29.9183 15.3015 30.5768 15.3015 31.2635C15.3015 31.9501 15.5742 32.6086 16.0597 33.0941L24.5985 41.6329C24.8382 41.8745 25.1234 42.0663 25.4376 42.1971C25.7518 42.328 26.0888 42.3954 26.4292 42.3954C26.7695 42.3954 27.1065 42.328 27.4207 42.1971C27.7349 42.0663 28.0201 41.8745 28.2598 41.6329L45.9411 23.9473C46.1847 23.7079 46.3785 23.4226 46.5113 23.1079C46.6441 22.7933 46.7133 22.4554 46.7149 22.1138C46.7165 21.7723 46.6504 21.4338 46.5206 21.1179C46.3907 20.802 46.1995 20.5149 45.9581 20.2732C45.7168 20.0316 45.4299 19.8401 45.1142 19.7098C44.7984 19.5796 44.46 19.5131 44.1184 19.5143C43.7769 19.5155 43.4389 19.5843 43.1241 19.7167C42.8093 19.8492 42.5238 20.0427 42.2841 20.286L26.427 36.1431Z" fill="#008027"/>
</svg>
